# xmcd
#
# Track frame offsets:
#	150
#	17673
#	32721
#	45069
#	58092
#	85740
#	99663
#	118836
#	125334
#	153657
#	170055
#	173178
#	183276
#
# Disc length: 2764 seconds
#
# Revision: 1
# Processed by: cddbd v1.5.2PL0 Copyright (c) Steve Scherf et al.
# Submitted via: audiograbber 1.83.01
#
DISCID=a30aca0d
DTITLE=Ron and Dianne's - Ron and Dianne's Pickin'Nik Disk 3
DYEAR=2007
DGENRE=Bluegrass
TTITLE0=Pallet on Your Floor
TTITLE1=How Mountain Girls Can Love
TTITLE2=Sunny Side of The Mountain
TTITLE3=Ballad of New Oreleans
TTITLE4=Long Black Veil
TTITLE5=Fox on the Run
TTITLE6=Blue Moon of Kentucky
TTITLE7=Groundspeed
TTITLE8=Glendale Train
TTITLE9=John Hardy
TTITLE10=Instrumental
TTITLE11=Dueling Banjos
TTITLE12=One Way Rider
EXTD=
EXTT0=
EXTT1=
EXTT2=
EXTT3=
EXTT4=
EXTT5=
EXTT6=
EXTT7=
EXTT8=
EXTT9=
EXTT10=
EXTT11=
EXTT12=
PLAYORDER=
